<?xml version="1.0" encoding="UTF-8" standalone="no"?>
<!-- Created with Inkscape (http://www.inkscape.org/) -->

<svg
   xmlns:dc="http://purl.org/dc/elements/1.1/"
   xmlns:cc="http://creativecommons.org/ns#"
   xmlns:rdf="http://www.w3.org/1999/02/22-rdf-syntax-ns#"
   xmlns:svg="http://www.w3.org/2000/svg"
   xmlns="http://www.w3.org/2000/svg"
   xmlns:sodipodi="http://sodipodi.sourceforge.net/DTD/sodipodi-0.dtd"
   xmlns:inkscape="http://www.inkscape.org/namespaces/inkscape"
   width="0.9156754in"
   height="0.69184238in"
   viewBox="0 0 23.258155 17.572796"
   version="1.1"
   id="svg8"
   sodipodi:docname="DataBass_Logo_Half.svg"
   inkscape:version="0.92.4 (5da689c313, 2019-01-14)">
  <defs
     id="defs2" />
  <sodipodi:namedview
     id="base"
     pagecolor="#ffffff"
     bordercolor="#666666"
     borderopacity="1.0"
     inkscape:pageopacity="0"
     inkscape:pageshadow="2"
     inkscape:zoom="3.959798"
     inkscape:cx="-54.613802"
     inkscape:cy="74.724717"
     inkscape:document-units="mm"
     inkscape:current-layer="layer2"
     showgrid="false"
     units="in"
     inkscape:pagecheckerboard="false"
     showguides="true"
     inkscape:guide-bbox="true"
     inkscape:window-width="1920"
     inkscape:window-height="1017"
     inkscape:window-x="-8"
     inkscape:window-y="-8"
     inkscape:window-maximized="1">
    <sodipodi:guide
       position="18.675264,-0.0011683937"
       orientation="0,1"
       id="guide3774"
       inkscape:locked="false" />
    <sodipodi:guide
       position="-16.676304,17.571291"
       orientation="0,1"
       id="guide3778"
       inkscape:locked="false" />
  </sodipodi:namedview>
  <metadata
     id="metadata5">
    <rdf:RDF>
      <cc:Work
         rdf:about="">
        <dc:format>image/svg+xml</dc:format>
        <dc:type
           rdf:resource="http://purl.org/dc/dcmitype/StillImage" />
        <dc:title></dc:title>
      </cc:Work>
    </rdf:RDF>
  </metadata>
  <g
     inkscape:groupmode="layer"
     id="layer2"
     inkscape:label="Layer 2"
     style="display:inline"
     transform="translate(-80.648775,-93.623194)">
    <flowRoot
       xml:space="preserve"
       id="flowRoot3766"
       style="font-style:normal;font-weight:normal;font-size:40px;line-height:1.25;font-family:sans-serif;letter-spacing:0px;word-spacing:0px;fill:#666666;fill-opacity:1;stroke:none"
       transform="matrix(0.27199963,0,0,0.27199963,-32.130072,-41.222125)"><flowRegion
         id="flowRegion3768"
         style="fill:#666666"><rect
           id="rect3770"
           width="395.71429"
           height="131.42857"
           x="445.71429"
           y="478.85715"
           style="fill:#666666" /></flowRegion><flowPara
         id="flowPara3772"
         style="font-style:normal;font-variant:normal;font-weight:normal;font-stretch:normal;font-size:96px;font-family:Sylfaen;-inkscape-font-specification:Sylfaen;fill:#666666">B</flowPara></flowRoot>  </g>
  <g
     inkscape:groupmode="layer"
     id="layer3"
     inkscape:label="Layer 3"
     transform="translate(-80.648775,-93.623194)">
    <path
       style="fill:#cccccc;stroke-width:0.03530329"
       d="m 80.732732,110.97816 c -0.05129,-0.12002 -0.08884,-0.22193 -0.08344,-0.22647 0.0054,-0.005 0.498724,-0.33575 1.096263,-0.73605 1.147888,-0.76897 1.929998,-1.34495 2.647972,-1.9501 0.61199,-0.51581 1.838222,-1.77226 2.289345,-2.34575 1.440779,-1.83158 2.240086,-3.63728 2.542822,-5.744431 0.06377,-0.44393 0.06784,-0.5617 0.03677,-1.06688 -0.101602,-1.65194 -0.528323,-2.86385 -1.266882,-3.598 -0.33833,-0.33632 -0.567292,-0.49282 -0.940514,-0.64289 -0.622711,-0.25042 -1.675243,-0.2832 -2.480498,-0.0772 -0.913497,0.23362 -1.54264,0.86974 -1.952215,1.97389 -0.07952,0.2144 -0.08273,0.24383 -0.03645,0.33466 0.02791,0.0547 0.07627,0.10951 0.107474,0.12165 0.104455,0.0406 0.329445,0.0226 0.655919,-0.0523 0.75461,-0.17356 1.565808,0.0706 2.131588,0.6419 0.463697,0.46813 0.616112,0.97209 0.468745,1.54995 -0.157613,0.61803 -0.791934,1.185441 -1.558077,1.393721 -0.319574,0.0868 -1.120469,0.0855 -1.436897,-0.003 -0.361009,-0.1003 -0.777165,-0.32616 -1.022842,-0.555091 -0.168854,-0.15733 -0.255815,-0.27681 -0.366932,-0.50414 -0.527673,-1.07958 -0.522922,-2.10037 0.0148,-3.1785 0.655608,-1.31446 2.124856,-2.37431 3.649966,-2.63286 0.299228,-0.0507 0.494932,-0.0582 1.086435,-0.0415 1.004367,0.0282 1.710535,0.15332 2.453476,0.43447 1.950338,0.73801 3.188147,2.29141 3.584348,4.49816 0.102312,0.56987 0.10967,1.640121 0.01478,2.151521 -0.175747,0.94724 -0.541725,1.81729 -1.159015,2.75532 -1.542912,2.34461 -4.2492,4.54412 -8.184932,6.6522 -0.653069,0.3498 -2.110996,1.06555 -2.17045,1.06555 -0.01556,0 -0.07029,-0.0982 -0.121569,-0.21822 z m 13.272014,-8.45175 c -0.503987,-0.18311 -0.781526,-0.57505 -0.781526,-1.1037 0,-0.36031 0.07901,-0.55394 0.330184,-0.80924 0.255815,-0.26002 0.475797,-0.35202 0.830431,-0.34733 0.420559,0.006 0.815322,0.26038 1.002447,0.64705 0.08333,0.17218 0.09742,0.24503 0.09742,0.50357 0,0.25832 -0.01412,0.33146 -0.0971,0.5029 -0.113055,0.23362 -0.350371,0.46962 -0.572502,0.56931 -0.22929,0.10291 -0.583987,0.11932 -0.809361,0.0373 z m -0.03438,-4.871981 c -0.328249,-0.11893 -0.617177,-0.42605 -0.714995,-0.75995 -0.06774,-0.23121 -0.04326,-0.58541 0.05563,-0.80515 0.187376,-0.41642 0.518947,-0.64759 0.968042,-0.67494 0.487192,-0.0296 0.855546,0.17456 1.083072,0.60048 0.111625,0.20894 0.121588,0.25237 0.121588,0.52987 0,0.25229 -0.01514,0.33462 -0.09157,0.49788 -0.111146,0.2374 -0.304519,0.43841 -0.539265,0.56058 -0.235962,0.12277 -0.62305,0.14525 -0.882498,0.0513 z"
       id="path5555"
       inkscape:connector-curvature="0" />
  </g>
</svg>
