<?xml version="1.0" encoding="UTF-8" standalone="no"?>
<!-- Created with Inkscape (http://www.inkscape.org/) -->

<svg
   xmlns:dc="http://purl.org/dc/elements/1.1/"
   xmlns:cc="http://creativecommons.org/ns#"
   xmlns:rdf="http://www.w3.org/1999/02/22-rdf-syntax-ns#"
   xmlns:svg="http://www.w3.org/2000/svg"
   xmlns="http://www.w3.org/2000/svg"
   xmlns:sodipodi="http://sodipodi.sourceforge.net/DTD/sodipodi-0.dtd"
   xmlns:inkscape="http://www.inkscape.org/namespaces/inkscape"
   width="3.3364887in"
   height="0.69166619in"
   viewBox="0 0 84.746814 17.568321"
   version="1.1"
   id="svg8"
   sodipodi:docname="DataBass_Logo_Full.svg"
   inkscape:version="0.92.4 (5da689c313, 2019-01-14)">
  <defs
     id="defs2" />
  <sodipodi:namedview
     id="base"
     pagecolor="#ffffff"
     bordercolor="#666666"
     borderopacity="1.0"
     inkscape:pageopacity="0"
     inkscape:pageshadow="2"
     inkscape:zoom="1.979899"
     inkscape:cx="223.1444"
     inkscape:cy="99.919123"
     inkscape:document-units="mm"
     inkscape:current-layer="layer3"
     showgrid="false"
     units="in"
     inkscape:pagecheckerboard="false"
     showguides="true"
     inkscape:guide-bbox="true"
     inkscape:window-width="1920"
     inkscape:window-height="1017"
     inkscape:window-x="-8"
     inkscape:window-y="-8"
     inkscape:window-maximized="1">
    <sodipodi:guide
       position="18.675262,0.0019413941"
       orientation="0,1"
       id="guide3774"
       inkscape:locked="false" />
    <sodipodi:guide
       position="-16.676305,17.574401"
       orientation="0,1"
       id="guide3778"
       inkscape:locked="false" />
  </sodipodi:namedview>
  <metadata
     id="metadata5">
    <rdf:RDF>
      <cc:Work
         rdf:about="">
        <dc:format>image/svg+xml</dc:format>
        <dc:type
           rdf:resource="http://purl.org/dc/dcmitype/StillImage" />
        <dc:title></dc:title>
      </cc:Work>
    </rdf:RDF>
  </metadata>
  <g
     inkscape:groupmode="layer"
     id="layer2"
     inkscape:label="Layer 2"
     style="display:inline"
     sodipodi:insensitive="true"
     transform="translate(-80.648775,-93.63078)">
    <flowRoot
       xml:space="preserve"
       id="flowRoot3766"
       style="font-style:normal;font-weight:normal;font-size:40px;line-height:1.25;font-family:sans-serif;letter-spacing:0px;word-spacing:0px;fill:#666666;fill-opacity:1;stroke:none"
       transform="matrix(0.26458333,0,0,0.26458333,-27.592262,-37.419643)"><flowRegion
         id="flowRegion3768"
         style="fill:#666666"><rect
           id="rect3770"
           width="395.71429"
           height="131.42857"
           x="445.71429"
           y="478.85715"
           style="fill:#666666" /></flowRegion><flowPara
         id="flowPara3772"
         style="font-style:normal;font-variant:normal;font-weight:normal;font-stretch:normal;font-size:96px;font-family:Sylfaen;-inkscape-font-specification:Sylfaen;fill:#666666">ataBass</flowPara></flowRoot>  </g>
  <g
     inkscape:groupmode="layer"
     id="layer3"
     inkscape:label="Layer 3"
     sodipodi:insensitive="true"
     transform="translate(-80.648775,-93.63078)">
    <path
       style="fill:#cccccc;stroke-width:0.03530329"
       d="m 80.732732,110.97816 c -0.05129,-0.12002 -0.08884,-0.22193 -0.08344,-0.22647 0.0054,-0.005 0.498724,-0.33575 1.096263,-0.73605 1.147888,-0.76897 1.929998,-1.34495 2.647972,-1.9501 0.61199,-0.51581 1.838222,-1.77226 2.289345,-2.34575 1.440779,-1.83158 2.240086,-3.63728 2.542822,-5.744431 0.06377,-0.44393 0.06784,-0.5617 0.03677,-1.06688 -0.101602,-1.65194 -0.528323,-2.86385 -1.266882,-3.598 -0.33833,-0.33632 -0.567292,-0.49282 -0.940514,-0.64289 -0.622711,-0.25042 -1.675243,-0.2832 -2.480498,-0.0772 -0.913497,0.23362 -1.54264,0.86974 -1.952215,1.97389 -0.07952,0.2144 -0.08273,0.24383 -0.03645,0.33466 0.02791,0.0547 0.07627,0.10951 0.107474,0.12165 0.104455,0.0406 0.329445,0.0226 0.655919,-0.0523 0.75461,-0.17356 1.565808,0.0706 2.131588,0.6419 0.463697,0.46813 0.616112,0.97209 0.468745,1.54995 -0.157613,0.61803 -0.791934,1.185441 -1.558077,1.393721 -0.319574,0.0868 -1.120469,0.0855 -1.436897,-0.003 -0.361009,-0.1003 -0.777165,-0.32616 -1.022842,-0.555091 -0.168854,-0.15733 -0.255815,-0.27681 -0.366932,-0.50414 -0.527673,-1.07958 -0.522922,-2.10037 0.0148,-3.1785 0.655608,-1.31446 2.124856,-2.37431 3.649966,-2.63286 0.299228,-0.0507 0.494932,-0.0582 1.086435,-0.0415 1.004367,0.0282 1.710535,0.15332 2.453476,0.43447 1.950338,0.73801 3.188147,2.29141 3.584348,4.49816 0.102312,0.56987 0.10967,1.640121 0.01478,2.151521 -0.175747,0.94724 -0.541725,1.81729 -1.159015,2.75532 -1.542912,2.34461 -4.2492,4.54412 -8.184932,6.6522 -0.653069,0.3498 -2.110996,1.06555 -2.17045,1.06555 -0.01556,0 -0.07029,-0.0982 -0.121569,-0.21822 z m 13.272014,-8.45175 c -0.503987,-0.18311 -0.781526,-0.57505 -0.781526,-1.1037 0,-0.36031 0.07901,-0.55394 0.330184,-0.80924 0.255815,-0.26002 0.475797,-0.35202 0.830431,-0.34733 0.420559,0.006 0.815322,0.26038 1.002447,0.64705 0.08333,0.17218 0.09742,0.24503 0.09742,0.50357 0,0.25832 -0.01412,0.33146 -0.0971,0.5029 -0.113055,0.23362 -0.350371,0.46962 -0.572502,0.56931 -0.22929,0.10291 -0.583987,0.11932 -0.809361,0.0373 z m -0.03438,-4.871981 c -0.328249,-0.11893 -0.617177,-0.42605 -0.714995,-0.75995 -0.06774,-0.23121 -0.04326,-0.58541 0.05563,-0.80515 0.187376,-0.41642 0.518947,-0.64759 0.968042,-0.67494 0.487192,-0.0296 0.855546,0.17456 1.083072,0.60048 0.111625,0.20894 0.121588,0.25237 0.121588,0.52987 0,0.25229 -0.01514,0.33462 -0.09157,0.49788 -0.111146,0.2374 -0.304519,0.43841 -0.539265,0.56058 -0.235962,0.12277 -0.62305,0.14525 -0.882498,0.0513 z"
       id="path5555"
       inkscape:connector-curvature="0" />
  </g>
  <g
     inkscape:groupmode="layer"
     id="layer4"
     inkscape:label="Layer 4"
     style="display:inline"
     sodipodi:insensitive="true"
     transform="translate(-80.648775,-93.63078)">
    <path
       id="flowRoot5586"
       transform="scale(0.26458333)"
       style="font-style:normal;font-weight:normal;font-size:40px;line-height:1.25;font-family:sans-serif;letter-spacing:0px;word-spacing:0px;fill:#666666;fill-opacity:1;stroke:none"
       d="m 462.27344,354.32617 c -0.3125,0 -0.46875,0.15625 -0.46875,0.46875 v 2.48438 c 0,0.3125 0.15625,0.46875 0.46875,0.46875 l 8.15625,0.79687 c 0.3125,0 0.46875,0.15625 0.46875,0.46875 v 55.21875 c 0,0.3125 -0.15625,0.46875 -0.46875,0.46875 l -8.15625,0.75 c -0.3125,0 -0.46875,0.17188 -0.46875,0.51563 v 2.48437 c 0,0.3125 0.15625,0.46875 0.46875,0.46875 h 24.5625 c 11.375,0 18.96875,-2.8125 22.78125,-8.4375 2.03125,-3 3.04687,-6.26562 3.04687,-9.79687 0,-4.375 -1.59375,-8.17188 -4.78125,-11.39063 -2.90625,-2.96875 -6.59375,-4.9375 -11.0625,-5.90625 7.8125,-2.78125 11.71875,-7.54687 11.71875,-14.29687 0,-2.90625 -0.67187,-5.45313 -2.01562,-7.64063 -1.09375,-1.75 -2.78125,-3.23437 -5.0625,-4.45312 -3.3125,-1.78125 -8.92188,-2.67188 -16.82813,-2.67188 z m 17.48437,4.40625 h 3.65625 l 3.65625,0.14063 c 3.625,0.125 6.60938,1.0625 8.95313,2.8125 2.53125,1.90625 3.79687,4.73437 3.79687,8.48437 0,4.53125 -1.76562,7.85938 -5.29687,9.98438 -2.65625,1.59375 -6.59375,2.39062 -11.8125,2.39062 h -2.95313 c -0.3125,0 -0.46875,-0.15625 -0.46875,-0.46875 v -22.875 c 0,-0.3125 0.15625,-0.46875 0.46875,-0.46875 z m -81.46875,9.09375 c -0.21875,0 -0.46875,0.14063 -0.75,0.42188 l -12.28125,12.375 c -0.21875,0.1875 -0.32812,0.375 -0.32812,0.5625 v 0.46875 c 0,0.28125 0.14062,0.42187 0.42187,0.42187 h 5.53125 c 0.34375,0 0.51563,0.15625 0.51563,0.46875 v 28.96875 c 0,2.59375 0.89062,4.70313 2.67187,6.32813 1.78125,1.625 3.98438,2.4375 6.60938,2.4375 2.46875,0 4.89062,-0.39063 7.26562,-1.17188 1.78125,-0.59375 3.90625,-1.71875 6.375,-3.375 0.25,-0.15625 0.34375,-0.375 0.28125,-0.65625 l -1.21875,-2.39062 c -0.0937,-0.0625 -0.20312,-0.10938 -0.32812,-0.14063 -0.1875,-0.0312 -0.34375,0.0156 -0.46875,0.14063 -1.84375,1.53125 -4.26563,2.29687 -7.26563,2.29687 -4.09375,0 -6.14062,-2.29687 -6.14062,-6.89062 v -25.54688 c 0,-0.3125 0.15625,-0.46875 0.46875,-0.46875 h 12.75 c 0.3125,0 0.46875,-0.17187 0.46875,-0.51562 v -3.42188 c 0,-0.34375 -0.15625,-0.51562 -0.46875,-0.51562 h -12.75 c -0.3125,0 -0.46875,-0.15625 -0.46875,-0.46875 v -8.8125 c 0,-0.34375 -0.14063,-0.51563 -0.42188,-0.51563 z m -36.23437,8.0625 c -0.63143,0 -1.27014,0.0228 -1.91211,0.0586 0.022,0.107 0.0428,0.21396 0.0566,0.32031 0.002,1.3e-4 0.004,-1.5e-4 0.006,0 0.008,-0.001 0.0202,-0.007 0.0195,0 0,0 0,0.002 0,0.002 0.0634,0 0.12805,0.002 0.18945,0.002 0.11335,4.1e-4 0.22649,-0.005 0.33985,-0.004 0.0596,-0.007 0.14423,-0.0455 0.16015,0.004 0,0 0.002,0 0.002,0 0.19197,0.002 0.18736,0.1565 0.10937,0.44141 0.078,0.29498 0.0809,0.45048 -0.11719,0.44922 -0.0139,0.0504 -0.0933,0.0109 -0.15234,0.002 -0.23258,-0.002 -0.4647,0.006 -0.69727,0.006 -0.0205,0.0114 -0.0399,0.026 -0.0723,0.0195 0,0 -0.002,0 -0.002,0 -0.0802,0.0421 -0.20338,0.003 -0.31446,-0.0176 -0.32049,0.002 -0.64049,-9.6e-4 -0.96094,0.008 10e-4,0.37878 0.0207,0.62551 -0.008,0.70898 3.2e-4,0.0421 -0.001,0.0313 0,0.0781 8.1e-4,0.034 -0.0689,-0.002 -0.10351,-0.002 -0.18528,-9e-4 -0.36945,9.6e-4 -0.55469,0.004 -0.80201,0.0113 -1.60462,-0.008 -2.40625,-0.0312 -0.056,1.6e-4 -0.1123,-0.006 -0.16797,0 -0.1327,0.0151 -0.25183,0.091 -0.38281,0.11719 -0.0411,0.008 -0.0861,-0.0152 -0.12696,-0.004 -0.17839,0.042 -0.49587,0.21593 -0.63086,0.2832 -0.34571,0.17207 -0.59973,0.10745 -0.71874,-0.0469 -0.11978,0.11219 -0.23014,0.23521 -0.34376,0.35351 0.0121,-0.008 0.0442,-0.0387 0.0352,-0.0273 -0.0556,0.0722 -0.11837,0.13831 -0.17578,0.20899 -0.064,0.0786 -0.10938,0.16987 -0.1875,0.23828 -0.0694,0.0609 -0.14884,0.11203 -0.22266,0.16797 -0.172,0.25738 -0.45083,0.37641 -0.70117,0.53515 0.0249,-0.0151 0.0949,-0.0603 0.0742,-0.041 -0.0725,0.0673 -0.15522,0.12167 -0.23047,0.18554 -0.005,0.004 0.0157,-0.008 0.0176,-0.004 0.003,0.008 -0.007,0.0159 -0.0117,0.0234 -0.0238,0.0302 -0.0447,0.0641 -0.0742,0.0899 -0.0635,0.0552 -0.13562,0.10207 -0.20312,0.15234 -0.003,0.0113 -0.004,0.0217 -0.01,0.0293 -0.0317,0.0457 -0.0804,0.0822 -0.10351,0.13281 -0.003,0.008 0.002,0.0139 0.002,0.0215 -0.0291,0.051 -0.0533,0.1051 -0.0879,0.15234 -0.0554,0.0763 -0.12128,0.14423 -0.18164,0.2168 -0.0424,0.0548 -0.091,0.10472 -0.12696,0.16406 -0.35662,0.58515 0.34862,-0.41502 -0.22851,0.43359 -0.0628,0.0922 -0.14055,0.1741 -0.20703,0.26367 -0.74394,1.00351 0.46989,-0.59211 -0.3711,0.50977 -0.21456,0.2589 -0.46522,0.48343 -0.71484,0.70703 -0.0441,0.0397 -0.0929,0.0753 -0.13281,0.11914 -0.006,0.008 0.007,0.0178 0.002,0.0254 -0.0468,0.0601 -0.10312,0.11361 -0.1543,0.16992 -0.0185,0.0273 -0.0432,0.0443 -0.0625,0.0703 -0.0106,0.057 -0.0288,0.10798 -0.0605,0.29101 -0.0193,0.11036 -0.0258,0.22274 -0.0586,0.33008 -0.0992,0.32393 -0.26082,0.59841 -0.43554,0.87891 0.005,-0.0119 0.0173,-0.0272 0.004,-0.0293 -0.0876,-0.0135 -0.18041,0.004 -0.27148,0.0137 -0.1031,0.23797 -0.2739,0.50944 -0.44336,0.70508 -0.038,0.0439 -0.082,0.082 -0.12305,0.12305 0.0101,0.0498 0.017,0.10001 0.0234,0.15039 0.0212,0.17348 0.0279,0.34326 0.0215,0.51758 -0.008,0.21089 -0.0153,0.33294 -0.0859,0.54882 -0.0443,0.13493 -0.0788,0.0803 -0.0391,0.13282 -0.13141,0.31521 -0.0324,0.16795 -0.3164,0.42382 -0.13048,0.11762 -0.19312,0.11665 -0.22852,0.0703 v 2.375 c 0,0.28125 0.15625,0.42187 0.46875,0.42187 h 3 c 0.3125,0 0.46875,-0.14062 0.46875,-0.42187 l 1.35938,-7.07813 c 0.125,-0.375 0.28125,-0.64062 0.46875,-0.79687 2.0625,-1 4.48437,-1.5 7.26562,-1.5 4.875,0 7.3125,2.48437 7.3125,7.45312 v 7.40625 c -3.0625,0.25 -6.46875,0.76563 -10.21875,1.54688 -1.6875,0.34375 -3.34375,0.89062 -4.96875,1.64062 -5.375,2.46875 -8.0625,6.34375 -8.0625,11.625 0,1.5 0.28125,2.90625 0.84375,4.21875 1.71875,4.03125 5.03125,6.04688 9.9375,6.04688 4.71875,0 9.09375,-1.85938 13.125,-5.57813 l 0.79688,4.5 c 0,0.3125 0.15625,0.46875 0.46875,0.46875 l 12.65625,-1.6875 c 0.15625,0 0.29687,-0.17187 0.42187,-0.51562 v -1.64063 c -0.0312,-0.125 -0.20312,-0.28125 -0.51562,-0.46875 l -6.04688,-1.73437 c -0.25,-0.125 -0.375,-0.3125 -0.375,-0.5625 v -25.92188 c 0,-2.21875 -0.35937,-4.04687 -1.07812,-5.48437 -1.90625,-3.84375 -6.0625,-5.76563 -12.46875,-5.76563 z m 74.25,0 c -4.53125,0 -9.32813,0.90625 -14.39063,2.71875 -0.3125,0.125 -0.46875,0.28125 -0.46875,0.46875 v 10.64063 c 0,0.28125 0.15625,0.42187 0.46875,0.42187 h 3 c 0.3125,0 0.46875,-0.14062 0.46875,-0.42187 l 1.35938,-7.07813 c 0.125,-0.375 0.28125,-0.64062 0.46875,-0.79687 2.0625,-1 4.48437,-1.5 7.26562,-1.5 4.875,0 7.3125,2.48437 7.3125,7.45312 v 7.40625 c -3.0625,0.25 -6.46875,0.76563 -10.21875,1.54688 -1.6875,0.34375 -3.34375,0.89062 -4.96875,1.64062 -5.375,2.46875 -8.0625,6.34375 -8.0625,11.625 0,1.5 0.28125,2.90625 0.84375,4.21875 1.71875,4.03125 5.03125,6.04688 9.9375,6.04688 4.71875,0 9.09375,-1.85938 13.125,-5.57813 l 0.79688,4.5 c 0,0.3125 0.15625,0.46875 0.46875,0.46875 l 12.65625,-1.6875 c 0.15625,0 0.29687,-0.17187 0.42187,-0.51562 v -1.64063 c -0.0312,-0.125 -0.20312,-0.28125 -0.51562,-0.46875 l -6.04688,-1.73437 c -0.25,-0.125 -0.375,-0.3125 -0.375,-0.5625 v -25.92188 c 0,-2.21875 -0.35937,-4.04687 -1.07812,-5.48437 -1.90625,-3.84375 -6.0625,-5.76563 -12.46875,-5.76563 z m 100.3125,0 c -4.53125,0 -9.32813,0.90625 -14.39063,2.71875 -0.3125,0.125 -0.46875,0.28125 -0.46875,0.46875 v 10.64063 c 0,0.28125 0.15625,0.42187 0.46875,0.42187 h 3 c 0.3125,0 0.46875,-0.14062 0.46875,-0.42187 l 1.35938,-7.07813 c 0.125,-0.375 0.28125,-0.64062 0.46875,-0.79687 2.0625,-1 4.48437,-1.5 7.26562,-1.5 4.875,0 7.3125,2.48437 7.3125,7.45312 v 7.40625 c -3.0625,0.25 -6.46875,0.76563 -10.21875,1.54688 -1.6875,0.34375 -3.34375,0.89062 -4.96875,1.64062 -5.375,2.46875 -8.0625,6.34375 -8.0625,11.625 0,1.5 0.28125,2.90625 0.84375,4.21875 1.71875,4.03125 5.03125,6.04688 9.9375,6.04688 4.71875,0 9.09375,-1.85938 13.125,-5.57813 l 0.79688,4.5 c 0,0.3125 0.15625,0.46875 0.46875,0.46875 l 12.65625,-1.6875 c 0.15625,0 0.29687,-0.17187 0.42187,-0.51562 v -1.64063 c -0.0312,-0.125 -0.20312,-0.28125 -0.51562,-0.46875 l -6.04688,-1.73437 c -0.25,-0.125 -0.375,-0.3125 -0.375,-0.5625 v -25.92188 c 0,-2.21875 -0.35937,-4.04687 -1.07812,-5.48437 -1.90625,-3.84375 -6.0625,-5.76563 -12.46875,-5.76563 z m 40.54687,0 c -4.0625,0 -7.54687,1.04688 -10.45312,3.14063 -3.375,2.4375 -5.0625,5.53125 -5.0625,9.28125 0,5.28125 3.39062,9.28125 10.17187,12 l 4.3125,1.73437 c 1.25,0.5625 2.10938,0.95313 2.57813,1.17188 2.8125,1.34375 4.21875,3.375 4.21875,6.09375 0,4.625 -2.75,6.9375 -8.25,6.9375 -2.34375,0 -4.60938,-0.51563 -6.79688,-1.54688 -0.25,-0.25 -0.39062,-0.4375 -0.42187,-0.5625 l -1.5,-7.6875 c 0,-0.25 -0.17188,-0.375 -0.51563,-0.375 h -2.95312 c -0.3125,0 -0.46875,0.125 -0.46875,0.375 v 11.10938 c 0,0.28125 0.15625,0.45312 0.46875,0.51562 4.34375,1.46875 8.125,2.20313 11.34375,2.20313 4.4375,0 8.25,-1.15625 11.4375,-3.46875 3.5625,-2.5625 5.34375,-5.98438 5.34375,-10.26563 0,-4.9375 -3.51563,-8.84375 -10.54688,-11.71875 l -4.03125,-1.64062 c -4.625,-1.875 -6.9375,-4.26563 -6.9375,-7.17188 0,-1 0.23438,-1.92187 0.70313,-2.76562 1.28125,-2.28125 3.60937,-3.42188 6.98437,-3.42188 1.96875,0 3.73438,0.35938 5.29688,1.07813 0.25,0.125 0.375,0.3125 0.375,0.5625 l 1.54687,7.5 c 0,0.15625 0.15625,0.28125 0.46875,0.375 h 2.95313 c 0.34375,0 0.51562,-0.125 0.51562,-0.375 v -10.82813 c 0,-0.28125 -0.17187,-0.45312 -0.51562,-0.51562 -3.53125,-1.15625 -6.95313,-1.73438 -10.26563,-1.73438 z m 34.5,0 c -4.0625,0 -7.54687,1.04688 -10.45312,3.14063 -3.375,2.4375 -5.0625,5.53125 -5.0625,9.28125 0,5.28125 3.39062,9.28125 10.17187,12 l 4.3125,1.73437 c 1.25,0.5625 2.10938,0.95313 2.57813,1.17188 2.8125,1.34375 4.21875,3.375 4.21875,6.09375 0,4.625 -2.75,6.9375 -8.25,6.9375 -2.34375,0 -4.60938,-0.51563 -6.79688,-1.54688 -0.25,-0.25 -0.39062,-0.4375 -0.42187,-0.5625 l -1.5,-7.6875 c 0,-0.25 -0.17188,-0.375 -0.51563,-0.375 h -2.95312 c -0.3125,0 -0.46875,0.125 -0.46875,0.375 v 11.10938 c 0,0.28125 0.15625,0.45312 0.46875,0.51562 4.34375,1.46875 8.125,2.20313 11.34375,2.20313 4.4375,0 8.25,-1.15625 11.4375,-3.46875 3.5625,-2.5625 5.34375,-5.98438 5.34375,-10.26563 0,-4.9375 -3.51563,-8.84375 -10.54688,-11.71875 l -4.03125,-1.64062 c -4.625,-1.875 -6.9375,-4.26563 -6.9375,-7.17188 0,-1 0.23438,-1.92187 0.70313,-2.76562 1.28125,-2.28125 3.60937,-3.42188 6.98437,-3.42188 1.96875,0 3.73438,0.35938 5.29688,1.07813 0.25,0.125 0.375,0.3125 0.375,0.5625 l 1.54687,7.5 c 0,0.15625 0.15625,0.28125 0.46875,0.375 h 2.95313 c 0.34375,0 0.51562,-0.125 0.51562,-0.375 v -10.82813 c 0,-0.28125 -0.17187,-0.45312 -0.51562,-0.51562 -3.53125,-1.15625 -6.95313,-1.73438 -10.26563,-1.73438 z m -263.32812,4.06641 c -0.005,0.0154 -0.014,0.029 -0.0176,0.0449 -10e-4,0.007 -0.003,0.0143 -0.004,0.0215 0.0141,-0.0186 0.0384,-0.0336 0.0566,-0.0508 -0.0106,-0.005 -0.024,-0.0107 -0.0351,-0.0156 z m 131.42187,6.24609 h 4.21875 c 12.71875,0 19.07813,5.10938 19.07813,15.32813 0,8.65625 -5.75,12.98437 -17.25,12.98437 h -6.04688 c -0.3125,0 -0.46875,-0.15625 -0.46875,-0.46875 v -27.375 c 0,-0.3125 0.15625,-0.46875 0.46875,-0.46875 z m -132.55469,0.17578 c -0.002,-9.5e-4 -0.006,0.005 -0.008,0.004 v 0.45898 c 0.0326,-0.21412 0.0675,-0.42798 0.008,-0.46289 z m 20.33594,12.57422 v 12.1875 c 0,0.15625 -0.15625,0.34375 -0.46875,0.5625 -1.65625,0.84375 -2.90625,1.42188 -3.75,1.73438 -1.6875,0.59375 -3.125,0.89062 -4.3125,0.89062 -4.09375,0 -6.14062,-2.04687 -6.14062,-6.14062 0,-3.8125 1.65625,-6.28125 4.96875,-7.40625 1.09375,-0.375 1.85937,-0.625 2.29687,-0.75 1.65625,-0.53125 4.125,-0.89063 7.40625,-1.07813 z m 74.25,0 v 12.1875 c 0,0.15625 -0.15625,0.34375 -0.46875,0.5625 -1.65625,0.84375 -2.90625,1.42188 -3.75,1.73438 -1.6875,0.59375 -3.125,0.89062 -4.3125,0.89062 -4.09375,0 -6.14062,-2.04687 -6.14062,-6.14062 0,-3.8125 1.65625,-6.28125 4.96875,-7.40625 1.09375,-0.375 1.85937,-0.625 2.29687,-0.75 1.65625,-0.53125 4.125,-0.89063 7.40625,-1.07813 z m 100.3125,0 v 12.1875 c 0,0.15625 -0.15625,0.34375 -0.46875,0.5625 -1.65625,0.84375 -2.90625,1.42188 -3.75,1.73438 -1.6875,0.59375 -3.125,0.89062 -4.3125,0.89062 -4.09375,0 -6.14062,-2.04687 -6.14062,-6.14062 0,-3.8125 1.65625,-6.28125 4.96875,-7.40625 1.09375,-0.375 1.85937,-0.625 2.29687,-0.75 1.65625,-0.53125 4.125,-0.89063 7.40625,-1.07813 z"
       inkscape:connector-curvature="0" />
  </g>
</svg>
